<svg width="455" height="105" viewBox="0 0 455 105" fill="none" xmlns="http://www.w3.org/2000/svg">
<path d="M113.528 78.2311V8.71533H154.925V17.4307H122.1V38.8043H151.579V47.5197H122.1V69.3082H157.224V78.0236H113.528V78.2311Z" fill="#E43225"/>
<path d="M200.712 78.2313L186.494 59.7629L172.277 78.2313H162.242L181.686 53.5376L161.196 28.0139H172.486L186.494 47.1048L200.712 28.0139H211.793L192.349 53.5376L210.747 78.2313H200.712Z" fill="#E43225"/>
<path d="M224.546 70.7609V105H215.974V53.7451C215.974 40.672 226.01 26.7688 241.69 26.7688C257.58 26.7688 269.497 36.7293 269.497 53.1225C269.497 69.1008 257.371 80.0989 243.572 80.0989C236.882 80.0989 227.891 77.1937 224.546 70.7609V70.7609ZM260.507 53.1225C260.507 41.917 253.189 35.2767 240.227 35.8992C233.955 36.1067 224.337 40.6719 225.173 56.6502C225.382 61.838 230.818 71.5909 242.736 71.5909C252.98 71.5909 260.507 65.7807 260.507 53.1225V53.1225Z" fill="#E43225"/>
<path d="M276.814 78.2312V28.0139H285.386V33.4091C289.568 28.6364 296.049 26.9763 302.948 26.9763V36.1067C301.903 35.8992 291.658 34.6542 285.386 47.9348V78.4388H276.814V78.2312Z" fill="#E43225"/>
<path d="M305.249 53.1225C305.249 38.5969 315.703 26.7688 330.129 26.7688C348.109 26.7688 354.8 38.5969 354.8 53.7451V57.8953H314.657C315.285 67.4407 323.857 72.421 331.801 72.2135C337.656 72.0059 341.628 70.3459 345.81 66.1957L351.455 72.0059C346.228 76.9862 339.537 80.3063 331.383 80.3063C316.121 80.0988 305.249 68.8933 305.249 53.1225V53.1225ZM329.502 35.2767C321.348 35.2767 315.075 42.332 314.657 50.0099H345.81C345.81 42.5395 340.374 35.2767 329.502 35.2767V35.2767Z" fill="#E43225"/>
<path d="M359.194 71.1757L365.466 65.5729C365.257 65.5729 368.603 68.8931 369.021 69.1006C370.484 70.3456 371.948 71.1757 373.829 71.5907C379.265 73.0433 389.092 72.6283 389.928 65.1579C390.346 61.0077 387.21 58.7251 383.656 57.2725C379.056 55.6124 374.038 54.9899 369.439 52.9148C364.212 50.6322 360.867 46.6895 360.867 40.8793C360.867 25.731 382.611 23.2409 392.437 30.2962C392.855 30.7113 397.664 35.069 397.455 35.069L391.183 40.0492C388.047 36.314 385.12 34.4464 378.429 34.4464C375.084 34.4464 370.484 35.899 369.648 39.4267C368.393 44.4069 374.038 46.2745 377.802 47.312C382.82 48.5571 388.256 49.3871 392.646 52.0848C398.709 55.8199 400.173 63.9128 397.873 70.1381C395.364 76.986 387.837 79.6836 381.147 79.8911C373.202 80.3061 366.303 77.816 360.658 72.2132C360.24 72.2132 359.194 71.1757 359.194 71.1757V71.1757Z" fill="#E43225"/>
<path d="M403.306 71.1757L409.578 65.5729C409.369 65.5729 412.714 68.8931 413.132 69.1006C414.596 70.3456 416.059 71.1757 417.941 71.5907C423.377 73.0433 433.203 72.6283 434.04 65.1579C434.458 61.0077 431.322 58.7251 427.767 57.2725C423.168 55.6124 418.15 54.9899 413.55 52.9148C408.323 50.6322 404.978 46.6895 404.978 40.8793C404.978 25.731 426.722 23.2409 436.549 30.2962C436.967 30.7113 441.775 35.069 441.566 35.069L435.294 40.0492C432.158 36.314 429.231 34.4464 422.54 34.4464C419.195 34.4464 414.596 35.899 413.759 39.4267C412.505 44.4069 418.15 46.2745 421.913 47.312C426.931 48.5571 432.367 49.3871 436.758 52.0848C442.821 55.8199 444.284 63.9128 441.985 70.1381C439.476 76.986 431.949 79.6836 425.258 79.8911C417.314 80.3061 410.414 77.816 404.769 72.2132C404.351 72.2132 403.306 71.1757 403.306 71.1757V71.1757Z" fill="#E43225"/>
<path d="M444.077 28.0136V22.6184H442.195V21.5808H447.213V22.6184H445.331V28.0136H444.077Z" fill="#E43225"/>
<path d="M453.484 28.0136V23.0334L451.602 28.0136H451.184L449.302 23.0334V28.0136H448.257V21.5808H449.929L451.602 25.9385L453.275 21.5808H454.947V28.0136H453.484Z" fill="#E43225"/>
<path d="M55.4049 78.2311L49.1327 61.6303H15.2625L8.99024 78.2311H0L27.1798 8.71533H37.0063L63.977 78.2311H55.4049ZM31.7794 18.6758L19.0259 53.1224H45.5784L31.7794 18.6758Z" fill="white"/>
<path d="M69.6216 78.2311V8.71533H78.4028V78.2311H69.6216Z" fill="white"/>
<path d="M91.577 78.2311V29.0513H100.358V78.2311H91.577Z" fill="white"/>
<path d="M108.718 13.0731C108.718 12.8656 108.718 12.8656 108.718 12.6581C108.718 12.4506 108.718 12.4506 108.718 12.2431C102.028 12.0356 96.5921 6.64032 96.383 0C96.1739 0 95.9648 0 95.7558 0C95.5467 0 95.3376 0 95.1285 0C94.9195 6.64032 89.4835 12.0356 82.7931 12.2431C82.7931 12.4506 82.7931 12.4506 82.7931 12.6581C82.7931 12.8656 82.7931 12.8656 82.7931 13.0731C89.4835 13.2806 94.9195 18.6759 95.1285 25.3162C95.3376 25.3162 95.5467 25.3162 95.7558 25.3162C95.9648 25.3162 96.1739 25.3162 96.383 25.3162C96.5921 18.6759 102.028 13.2806 108.718 13.0731Z" fill="white"/>
</svg>
